<svg width="256" height="256" viewBox="0 0 256 256" fill="none" xmlns="http://www.w3.org/2000/svg">
<g clip-path="url(#clip0_3_42)">
<rect width="256" height="256" fill="#155DFC"/>
<path d="M74.0847 49.424C92.782 36.0672 115.596 29.743 138.502 31.5676C161.408 33.3922 182.933 43.249 199.28 59.3976C215.627 75.5463 225.746 96.9494 227.85 119.831C229.955 142.713 223.91 165.603 210.782 184.462C197.654 203.321 178.287 216.938 156.098 222.909C133.91 228.881 110.325 226.825 89.5046 217.102C86.0875 215.804 82.374 215.493 78.7888 216.204L45.5124 225.935C43.9072 226.361 42.2197 226.37 40.6101 225.961C39.0005 225.552 37.5222 224.738 36.3152 223.598C35.1081 222.457 34.212 221.026 33.7126 219.443C33.2133 217.859 33.1271 216.174 33.4616 214.547L43.8454 182.47C44.6817 178.671 44.3621 174.707 42.9284 171.091C32.9521 150.391 30.6072 126.833 36.3073 104.573C42.0076 82.3132 55.3872 62.7811 74.0847 49.424ZM130.542 69.9347C117.848 69.9348 105.673 74.9782 96.697 83.9543C87.7209 92.9304 82.6775 105.105 82.6775 117.799C82.6776 132.858 90.9385 147.626 99.8025 159.273C108.78 171.067 118.997 180.459 124.116 184.879C124.199 184.951 124.285 185.021 124.373 185.087C126.151 186.424 128.317 187.147 130.542 187.147C132.766 187.147 134.932 186.424 136.71 185.087C136.798 185.021 136.883 184.951 136.967 184.879C142.085 180.459 152.303 171.068 161.28 159.273C170.144 147.626 178.405 132.858 178.405 117.799C178.405 105.105 173.362 92.9304 164.386 83.9543C155.41 74.9783 143.236 69.9349 130.542 69.9347Z" fill="white"/>
<path d="M131.155 135.557C141.326 135.557 149.572 127.311 149.572 117.14C149.572 106.969 141.326 98.7236 131.155 98.7236C120.984 98.7236 112.739 106.969 112.739 117.14C112.739 127.311 120.984 135.557 131.155 135.557Z" fill="white"/>
</g>
<defs>
<clipPath id="clip0_3_42">
<path d="M0 40C0 17.9086 17.9086 0 40 0H216C238.091 0 256 17.9086 256 40V216C256 238.091 238.091 256 216 256H40C17.9086 256 0 238.091 0 216V40Z" fill="white"/>
</clipPath>
</defs>
</svg>
